<svg width="1200" height="300" viewBox="0 0 1200 300" fill="none" xmlns="http://www.w3.org/2000/svg">
<path d="M121.072 114.6L129.904 128.552L88.368 152.808L129.904 176.616L120.752 191.016L70.896 160.04V145.704L121.072 114.6ZM969.084 102.824L1038.2 145.576V160.04L988.348 191.016L979.196 177.256L1020.8 152.808L960.124 117.352L969.084 102.824ZM925.756 207.336L909.948 200.104L963.772 88.424L979.452 95.656L925.756 207.336Z" fill="#2CB67D"/>
<path d="M222.398 104.296L227.39 193H209.086L207.998 155.048C207.913 151.507 207.87 148.349 207.87 145.576C207.913 142.803 207.977 140.2 208.062 137.768C208.147 135.293 208.275 132.819 208.446 130.344C208.659 127.827 208.873 125.096 209.086 122.152L199.102 177.896H183.23L172.478 122.152C172.734 124.968 172.947 127.635 173.118 130.152C173.331 132.627 173.481 135.123 173.566 137.64C173.651 140.157 173.715 142.867 173.758 145.768C173.801 148.627 173.779 151.827 173.694 155.368L173.054 193H155.07L160.062 104.296H181.63L191.486 161.64L200.83 104.296H222.398ZM294.156 125.032V179.176H311.436V193H254.668V179.176H273.932V138.856H255.308V125.032H294.156ZM281.932 89.448C285.431 89.448 288.289 90.536 290.508 92.712C292.727 94.888 293.836 97.5973 293.836 100.84C293.836 104.083 292.727 106.813 290.508 109.032C288.289 111.208 285.431 112.296 281.932 112.296C278.391 112.296 275.489 111.208 273.228 109.032C271.009 106.813 269.9 104.083 269.9 100.84C269.9 97.5973 271.009 94.888 273.228 92.712C275.489 90.536 278.391 89.448 281.932 89.448ZM379.482 179.24C382.255 179.24 384.858 178.707 387.29 177.64C389.765 176.531 392.218 175.123 394.65 173.416L403.674 186.216C400.687 188.776 397.039 190.909 392.73 192.616C388.463 194.323 383.685 195.176 378.394 195.176C371.098 195.176 364.826 193.683 359.578 190.696C354.33 187.667 350.298 183.485 347.482 178.152C344.666 172.776 343.258 166.547 343.258 159.464C343.258 152.381 344.687 146.088 347.546 140.584C350.447 135.037 354.543 130.685 359.834 127.528C365.167 124.371 371.482 122.792 378.778 122.792C383.941 122.792 388.527 123.517 392.538 124.968C396.591 126.376 400.303 128.488 403.674 131.304L394.906 143.464C392.602 141.843 390.17 140.584 387.61 139.688C385.05 138.792 382.383 138.344 379.61 138.344C375.045 138.344 371.354 139.965 368.538 143.208C365.765 146.408 364.378 151.827 364.378 159.464C364.378 164.456 365.039 168.403 366.362 171.304C367.685 174.163 369.477 176.211 371.738 177.448C374.042 178.643 376.623 179.24 379.482 179.24ZM454.504 96.04V131.752C457.363 128.723 460.456 126.483 463.784 125.032C467.155 123.539 470.717 122.792 474.472 122.792C480.531 122.792 485.16 124.563 488.36 128.104C491.56 131.645 493.16 136.637 493.16 143.08V193H472.936V148.712C472.936 144.616 472.467 141.757 471.528 140.136C470.632 138.515 468.925 137.704 466.408 137.704C465 137.704 463.613 138.045 462.248 138.728C460.925 139.368 459.624 140.307 458.344 141.544C457.064 142.781 455.784 144.253 454.504 145.96V193H434.28V98.024L454.504 96.04ZM582.326 173.416C582.326 175.976 582.667 177.832 583.35 178.984C584.075 180.136 585.227 181.011 586.806 181.608L582.646 194.92C578.635 194.536 575.243 193.661 572.47 192.296C569.739 190.888 567.585 188.776 566.006 185.96C563.403 189.075 560.075 191.4 556.022 192.936C551.969 194.429 547.83 195.176 543.606 195.176C536.609 195.176 531.019 193.192 526.838 189.224C522.699 185.213 520.63 180.072 520.63 173.8C520.63 166.419 523.51 160.723 529.27 156.712C535.073 152.701 543.222 150.696 553.718 150.696H562.87V148.136C562.87 144.595 561.718 141.971 559.414 140.264C557.153 138.557 553.825 137.704 549.43 137.704C547.254 137.704 544.459 138.024 541.046 138.664C537.633 139.261 534.219 140.136 530.806 141.288L526.134 127.848C530.529 126.184 535.094 124.925 539.83 124.072C544.609 123.219 548.875 122.792 552.63 122.792C562.742 122.792 570.209 124.861 575.03 129C579.894 133.096 582.326 139.027 582.326 146.792V173.416ZM550.582 180.712C552.758 180.712 555.041 180.072 557.43 178.792C559.819 177.469 561.633 175.613 562.87 173.224V162.216H557.878C552.246 162.216 548.107 163.091 545.462 164.84C542.817 166.547 541.494 169.064 541.494 172.392C541.494 174.995 542.283 177.043 543.862 178.536C545.483 179.987 547.723 180.712 550.582 180.712ZM633.476 164.904C633.945 168.616 634.905 171.624 636.356 173.928C637.849 176.189 639.748 177.853 642.052 178.92C644.356 179.944 646.937 180.456 649.796 180.456C652.911 180.456 655.919 179.944 658.82 178.92C661.721 177.896 664.516 176.531 667.204 174.824L675.332 185.832C672.132 188.563 668.249 190.803 663.684 192.552C659.161 194.301 653.999 195.176 648.196 195.176C640.431 195.176 633.924 193.64 628.676 190.568C623.428 187.453 619.481 183.187 616.836 177.768C614.191 172.349 612.868 166.12 612.868 159.08C612.868 152.381 614.148 146.301 616.708 140.84C619.268 135.336 623.001 130.963 627.908 127.72C632.857 124.435 638.895 122.792 646.02 122.792C652.505 122.792 658.116 124.179 662.852 126.952C667.631 129.725 671.321 133.715 673.924 138.92C676.569 144.125 677.892 150.376 677.892 157.672C677.892 158.824 677.849 160.061 677.764 161.384C677.721 162.707 677.636 163.88 677.508 164.904H633.476ZM646.02 136.36C642.393 136.36 639.471 137.661 637.252 140.264C635.033 142.867 633.689 147.027 633.22 152.744H658.18C658.137 147.795 657.177 143.827 655.3 140.84C653.423 137.853 650.329 136.36 646.02 136.36ZM631.492 111.4C628.548 111.4 626.052 110.419 624.004 108.456C621.956 106.493 620.932 104.061 620.932 101.16C620.932 98.3013 621.956 95.8907 624.004 93.928C626.052 91.9653 628.548 90.984 631.492 90.984C634.479 90.984 636.975 91.9653 638.98 93.928C640.985 95.8907 641.988 98.3013 641.988 101.16C641.988 104.061 640.985 106.493 638.98 108.456C636.975 110.419 634.479 111.4 631.492 111.4ZM661.06 111.4C658.201 111.4 655.727 110.419 653.636 108.456C651.588 106.493 650.564 104.061 650.564 101.16C650.564 98.3013 651.588 95.8907 653.636 93.928C655.727 91.9653 658.201 90.984 661.06 90.984C664.047 90.984 666.543 91.9653 668.548 93.928C670.596 95.8907 671.62 98.3013 671.62 101.16C671.62 104.061 670.596 106.493 668.548 108.456C666.543 110.419 664.047 111.4 661.06 111.4ZM742.226 98.024V171.624C742.226 174.355 742.994 176.317 744.53 177.512C746.109 178.664 748.263 179.24 750.994 179.24C752.743 179.24 754.429 179.048 756.05 178.664C757.671 178.237 759.186 177.747 760.594 177.192L765.458 190.696C763.154 191.891 760.381 192.936 757.138 193.832C753.895 194.728 750.119 195.176 745.81 195.176C737.618 195.176 731.602 192.829 727.762 188.136C723.922 183.4 722.002 177.064 722.002 169.128V111.848H701.97V98.024H742.226Z" fill="white"/>
</svg>
